<svg class="icon" viewBox="0 0 1024 1024" xmlns="http://www.w3.org/2000/svg" width="200" height="200"><defs><style/></defs><path d="M564.88 442.445c-23.134 9.525-44.338 22.226-63.614 38.1-19.277 15.876-35.946 34.02-50.007 54.43-14.062 20.412-24.948 42.75-32.657 67.017-7.71 24.266-11.566 49.78-11.566 76.542 0 23.586 3.062 46.152 9.186 67.697s14.628 41.843 25.514 60.893h-18.37c-13.154 0-28.462-.454-45.925-1.361s-35.492-2.156-54.089-3.743a2191.397 2191.397 0 0 1-55.45-5.443c-18.37-2.041-35.04-4.195-50.007-6.464-14.968-2.269-27.669-4.536-38.101-6.804s-17.01-4.535-19.73-6.804c-4.99-3.628-8.731-14.855-11.226-33.679-2.495-18.824-1.474-42.977 3.062-72.46 1.814-11.34 5.556-20.637 11.225-27.894 5.67-7.258 12.587-13.495 20.752-18.71s17.236-9.413 27.216-12.588a978.297 978.297 0 0 1 30.617-9.185c10.433-2.949 20.524-6.124 30.277-9.526s18.71-7.598 26.875-12.588c9.525-5.897 16.895-11.68 22.111-17.35 5.216-5.67 8.958-11.226 11.227-16.669a43.769 43.769 0 0 0 3.402-17.01c0-5.896-.227-12.473-.679-19.73-.908-10.432-4.535-18.71-10.886-24.834-6.35-6.124-13.38-12.36-21.091-18.71-3.629-3.176-6.918-7.598-9.866-13.269a169.412 169.412 0 0 1-7.824-17.35 1184.35 1184.35 0 0 1-6.804-21.091c-3.175-.908-6.35-2.495-9.526-4.763-2.721-2.267-5.67-5.443-8.846-9.526s-5.897-9.979-8.164-17.688-3.174-14.741-2.721-21.092 1.812-12.02 4.081-17.01c1.815-4.989 4.764-9.751 8.846-14.288 0-17.235.908-34.472 2.722-51.708 1.814-14.515 4.99-30.163 9.526-46.945s11.566-31.75 21.091-44.905c9.072-12.7 18.824-23.02 29.257-30.957s21.318-14.175 32.656-18.71 22.565-7.597 33.68-9.186 21.886-2.38 32.317-2.38c13.155 0 26.195 1.474 39.121 4.422 12.927 2.948 25.06 6.917 36.4 11.906s21.432 10.659 30.276 17.01 15.762 12.7 20.752 19.05c11.793 14.514 20.41 30.503 25.853 47.966s9.298 34.132 11.566 50.007c2.269 18.143 3.402 36.513 3.402 55.11 3.176 2.268 5.67 5.217 7.485 8.845 1.814 3.176 3.289 7.258 4.423 12.247s1.247 11.112.34 18.37c-.908 9.978-2.836 17.803-5.784 23.472s-6.237 10.093-9.866 13.268c-4.082 3.629-8.391 6.124-12.928 7.485a212.929 212.929 0 0 0-2.722 8.845l-3.402 9.526c-.908 3.176-2.042 6.577-3.403 10.206l-.005.006z"/><path d="M859.48 595.87c-11.34-26.083-26.649-48.875-45.925-68.38-19.277-19.502-41.956-34.925-68.037-46.264-26.08-11.34-53.862-17.01-83.346-17.01-29.936 0-57.943 5.67-84.024 17.01-26.082 11.34-48.761 26.76-68.037 46.265-19.276 19.504-34.585 42.296-45.925 68.378-11.34 26.081-17.01 53.864-17.01 83.346s5.672 57.266 17.01 83.347c11.34 26.08 26.648 48.874 45.925 68.378 19.277 19.504 41.956 34.813 68.037 45.925 26.08 11.113 54.087 16.669 84.024 16.669 29.484 0 57.265-5.556 83.346-16.67s48.76-26.42 68.037-45.924c19.277-19.504 34.586-42.296 45.925-68.378 11.34-26.082 17.01-53.864 17.01-83.347s-5.67-57.264-17.01-83.346zm-62.096 38.04L657.84 778.043l-1.423 1.452-.17-.12c-5.69 5.143-12.743 7.805-19.911 7.805-7.794 0-15.53-3.025-21.447-9.137L539.8 700.47c-11.833-12.162-11.833-31.948 0-44.11 11.774-12.162 30.889-12.162 42.721 0l53.872 55.668L754.661 589.8c11.775-12.162 30.947-12.162 42.722 0 11.776 12.16 11.776 31.948 0 44.11z"/></svg>