<svg class="icon" viewBox="0 0 1026 1024" xmlns="http://www.w3.org/2000/svg" width="200.391" height="200"><defs><style/></defs><path d="M174.084 844.233c45.513-19.342 96.14-41.53 141.653-60.302 12.512-3.984 25.602-7.398 38.683-10.813 15.358-10.805 30.155-46.082 38.684-63.716l18.203-4.553c-3.983-23.326-18.203-25.033-24.463-41.53-2.277-25.032-4.553-49.496-6.83-74.521 0 1.138-17.065-3.415-19.342-4.553-23.894-14.789-24.463-76.229-26.74-101.83-1.138-11.944 15.358-21.05 10.805-42.668-26.17-125.157 11.375-183.182 70.546-203.093 41.53-16.496 118.896-47.79 191.15-3.414l17.634 16.496 29.017 5.122c14.788 8.536 23.894 36.407 23.894 36.407 7.968 30.724 8.537 32.992 7.968 64.855 0 12.512-6.83 68.838-5.122 85.903 1.707 14.22 5.122 15.358 10.805 27.31 9.675 20.48 6.83 48.927 2.845 69.407-2.276 11.374-6.26 27.31-13.081 36.407-7.399 10.236-22.187 10.236-28.448 22.188-9.105 17.065-3.983 40.96-9.675 59.163-6.829 20.48-23.894 22.188-25.032 49.497 8.536 1.138 16.496 2.276 25.032 3.415 7.968 17.634 23.326 52.903 38.684 63.716 12.512 3.984 25.602 7.398 38.684 10.813 45.512 18.773 96.14 40.96 142.221 60.302 10.71 4.513 21.418 7.903 32.127 11.839 82.545-90.906 132.852-211.613 132.852-344.072C1026.846 229.232 797.614 0 514.846 0s-512 229.232-512 512c0 128.932 47.693 246.682 126.382 336.666 2.533 2.901 5.082 5.787 7.703 8.608 1.684 1.812 25.65-8.111 37.153-13.041zM894.299 856.176l-.297-.104"/></svg>