<svg class="icon" viewBox="0 0 1024 1024" xmlns="http://www.w3.org/2000/svg" width="200" height="200"><defs><style/></defs><path d="M807.424 246.272c21.76 0 39.424-17.664 39.424-39.424V49.152c0-21.76-17.664-39.424-39.424-39.424S768 27.648 768 49.152v157.44c0 21.76 17.664 39.68 39.424 39.68zm-295.424 0c21.76 0 39.424-17.664 39.424-39.424V49.152c0-21.76-17.664-39.424-39.424-39.424s-39.424 17.664-39.424 39.424v157.44c0 21.76 17.664 39.68 39.424 39.68zM964.864 68.864h-78.848v147.712c0 27.648-21.76 49.152-49.152 49.152h-59.136c-27.648 0-49.152-21.76-49.152-49.152V68.864H590.848v147.712c0 27.648-21.76 49.152-49.152 49.152H482.56c-27.648 0-49.152-21.76-49.152-49.152V68.864H295.68v147.712c0 27.648-21.76 49.152-49.152 49.152h-59.392c-27.648 0-49.152-21.76-49.152-49.152V68.864H59.136C25.6 68.864 0 94.464 0 128v827.136c0 33.536 25.6 59.136 59.136 59.136h905.728c33.536 0 59.136-25.6 59.136-59.136V128c0-33.536-25.6-59.136-59.136-59.136zM137.728 443.136h571.136c21.76 0 39.424 17.664 39.424 39.424s-17.664 39.424-39.424 39.424H137.728c-21.76 0-39.424-17.664-39.424-39.424s17.92-39.424 39.424-39.424zm0 157.44h334.848C494.336 600.576 512 618.24 512 640s-17.664 39.424-39.424 39.424H137.728c-21.76 0-39.424-17.664-39.424-39.424.256-21.76 17.92-39.424 39.424-39.424zm748.544 216.576H137.728c-21.76 0-39.424-17.664-39.424-39.424s17.664-39.424 39.424-39.424h748.288c21.76 0 39.424 17.664 39.424 39.424s-17.664 39.424-39.168 39.424zm-669.696-570.88c21.76 0 39.424-17.664 39.424-39.424V49.152c0-21.76-17.664-39.424-39.424-39.424s-39.424 17.664-39.424 39.424v157.44c0 21.76 17.92 39.68 39.424 39.68z"/></svg>
